HIERARCHY
ROOT hip
{
  OFFSET 0 0 0
  CHANNELS 6 Xposition Yposition Zposition Zrotation Yrotation Xrotation
  JOINT abdomen
  {
    OFFSET 0 20.6881 -0.73152
    CHANNELS 3 Zrotation Xrotation Yrotation
    JOINT chest
    {
      OFFSET 0 11.7043 -0.48768
      CHANNELS 3 Zrotation Xrotation Yrotation
      JOINT neck
      {
        OFFSET 0 22.1894 -2.19456
        CHANNELS 3 Zrotation Xrotation Yrotation
        JOINT head
        {
          OFFSET -0.24384 7.07133 1.2192
          CHANNELS 3 Zrotation Xrotation Yrotation
          JOINT leftEye
          {
            OFFSET 4.14528 8.04674 8.04672
            CHANNELS 3 Zrotation Xrotation Yrotation
            End Site
            {
              OFFSET 1 0 0
            }
          }
          JOINT rightEye
          {
            OFFSET -3.6576 8.04674 8.04672
            CHANNELS 3 Zrotation Xrotation Yrotation
            End Site
            {
              OFFSET 1 0 0
            }
          }
        }
      }
      JOINT rCollar
      {
        OFFSET -2.68224 19.2634 -4.8768
        CHANNELS 3 Zrotation Xrotation Yrotation
        JOINT rShldr
        {
          OFFSET -8.77824 -1.95073 1.46304
          CHANNELS 3 Zrotation Xrotation Yrotation
          JOINT rForeArm
          {
            OFFSET -28.1742 -1.7115 0.48768
            CHANNELS 3 Zrotation Xrotation Yrotation
            JOINT rHand
            {
              OFFSET -22.5879 0.773209 7.07136
              CHANNELS 3 Zrotation Xrotation Yrotation
              JOINT rThumb1
              {
                OFFSET -1.2192 -0.487915 3.41376
                CHANNELS 3 Zrotation Xrotation Yrotation
                JOINT rThumb2
                {
                  OFFSET -3.37035 -0.52449 3.41376
                  CHANNELS 3 Zrotation Xrotation Yrotation
                  End Site
                  {
                    OFFSET -1.78271 -1.18214 1.43049
                  }
                }
              }
              JOINT rIndex1
              {
                OFFSET -7.75947 0.938293 5.60832
                CHANNELS 3 Zrotation Xrotation Yrotation
                JOINT rIndex2
                {
                  OFFSET -2.54057 -0.884171 1.56538
                  CHANNELS 3 Zrotation Xrotation Yrotation
                  End Site
                  {
                    OFFSET -1.62519 -0.234802 1.16502
                  }
                }
              }
              JOINT rMid1
              {
                OFFSET -8.24714 1.18213 3.41376
                CHANNELS 3 Zrotation Xrotation Yrotation
                JOINT rMid2
                {
                  OFFSET -3.10165 -0.590103 1.0647
                  CHANNELS 3 Zrotation Xrotation Yrotation
                  End Site
                  {
                    OFFSET -2.48547 -0.328903 0.83742
                  }
                }
              }
              JOINT rRing1
              {
                OFFSET -8.82822 0.546677 1.51678
                CHANNELS 3 Zrotation Xrotation Yrotation
                JOINT rRing2
                {
                  OFFSET -2.60934 -0.819778 -0.0198488
                  CHANNELS 3 Zrotation Xrotation Yrotation
                  End Site
                  {
                    OFFSET -2.33842 -0.294052 0.168128
                  }
                }
              }
              JOINT rPinky1
              {
                OFFSET -8.27202 -0.0477905 -0.4584
                CHANNELS 3 Zrotation Xrotation Yrotation
                JOINT rPinky2
                {
                  OFFSET -1.82734 -0.647385 -0.700984
                  CHANNELS 3 Zrotation Xrotation Yrotation
                  End Site
                  {
                    OFFSET -1.69225 -0.51767 -0.607171
                  }
                }
              }
            }
          }
        }
      }
      JOINT lCollar
      {
        OFFSET 2.68224 19.2634 -4.8768
        CHANNELS 3 Zrotation Xrotation Yrotation
        JOINT lShldr
        {
          OFFSET 8.77824 -1.95073 1.46304
          CHANNELS 3 Zrotation Xrotation Yrotation
          JOINT lForeArm
          {
            OFFSET 28.1742 -1.7115 0.48768
            CHANNELS 3 Zrotation Xrotation Yrotation
            JOINT lHand
            {
              OFFSET 22.5879 0.773209 7.07136
              CHANNELS 3 Zrotation Xrotation Yrotation
              JOINT lThumb1
              {
                OFFSET 1.2192 -0.487915 3.41376
                CHANNELS 3 Zrotation Xrotation Yrotation
                JOINT lThumb2
                {
                  OFFSET 3.37035 -0.52449 3.41376
                  CHANNELS 3 Zrotation Xrotation Yrotation
                  End Site
                  {
                    OFFSET 1.78271 -1.18214 1.43049
                  }
                }
              }
              JOINT lIndex1
              {
                OFFSET 7.75947 0.938293 5.60832
                CHANNELS 3 Zrotation Xrotation Yrotation
                JOINT lIndex2
                {
                  OFFSET 2.54057 -0.884171 1.56538
                  CHANNELS 3 Zrotation Xrotation Yrotation
                  End Site
                  {
                    OFFSET 1.62519 -0.234802 1.16502
                  }
                }
              }
              JOINT lMid1
              {
                OFFSET 8.24714 1.18213 3.41376
                CHANNELS 3 Zrotation Xrotation Yrotation
                JOINT lMid2
                {
                  OFFSET 3.10165 -0.590103 1.0647
                  CHANNELS 3 Zrotation Xrotation Yrotation
                  End Site
                  {
                    OFFSET 2.48547 -0.328903 0.83742
                  }
                }
              }
              JOINT lRing1
              {
                OFFSET 8.82822 0.546677 1.51678
                CHANNELS 3 Zrotation Xrotation Yrotation
                JOINT lRing2
                {
                  OFFSET 2.60934 -0.819778 -0.0198488
                  CHANNELS 3 Zrotation Xrotation Yrotation
                  End Site
                  {
                    OFFSET 2.33842 -0.294052 0.168128
                  }
                }
              }
              JOINT lPinky1
              {
                OFFSET 8.27202 -0.0477905 -0.4584
                CHANNELS 3 Zrotation Xrotation Yrotation
                JOINT lPinky2
                {
                  OFFSET 1.82734 -0.647385 -0.700984
                  CHANNELS 3 Zrotation Xrotation Yrotation
                  End Site
                  {
                    OFFSET 1.69225 -0.51767 -0.607171
                  }
                }
              }
            }
          }
        }
      }
    }
  }
  JOINT rButtock
  {
    OFFSET -8.77824 4.35084 1.2192
    CHANNELS 3 Zrotation Xrotation Yrotation
    JOINT rThigh
    {
      OFFSET 0 -1.70687 -2.19456
      CHANNELS 3 Zrotation Xrotation Yrotation
      JOINT rShin
      {
        OFFSET 0 -36.8199 0.73152
        CHANNELS 3 Zrotation Xrotation Yrotation
        JOINT rFoot
        {
          OFFSET 0.73152 -45.1104 -5.12064
          CHANNELS 3 Zrotation Xrotation Yrotation
          End Site
          {
            OFFSET -1.1221 -3.69964 12.103
          }
        }
      }
    }
  }
  JOINT lButtock
  {
    OFFSET 8.77824 4.35084 1.2192
    CHANNELS 3 Zrotation Xrotation Yrotation
    JOINT lThigh
    {
      OFFSET 0 -1.70687 -2.19456
      CHANNELS 3 Zrotation Xrotation Yrotation
      JOINT lShin
      {
        OFFSET 0 -36.8199 0.73152
        CHANNELS 3 Zrotation Xrotation Yrotation
        JOINT lFoot
        {
          OFFSET -0.73152 -45.1104 -5.12064
          CHANNELS 3 Zrotation Xrotation Yrotation
          End Site
          {
            OFFSET 1.1221 -3.69964 12.103
          }
        }
      }
    }
  }
}
MOTION
Frames:	4
Frame Time:	0.03333
-17.10413016844541 50.491541624069214 4.471233859658241 -13.62551212310791 -26.7031192779541 11.506880760192871 11.077502250671387 5.511368751525879 2.812947988510132 3.144061803817749 -6.405507564544678 0.8309131264686584 -4.307397365570068 11.528375625610352 -2.0035018920898438 5.518303394317627 -19.088054656982422 -2.9268953800201416 0.15647317469120026 0.21694305539131165 0.05430477112531662 0.03499734401702881 -0.05663890019059181 -0.014922140166163445 0.0004913420416414738 -0.11393153667449951 -0.02498822845518589 103.69043731689453 50.16803741455078 -53.374732971191406 -27.294965744018555 -43.120628356933594 90.1219711303711 -3.9403791427612305 -48.647457122802734 -8.815914154052734 -0.035834960639476776 0.04809730127453804 -0.11483800411224365 0.014460736885666847 -0.059041280299425125 0.015010177157819271 -0.04515098035335541 0.25532829761505127 -0.1311519891023636 7.767049789428711 5.617815971374512 0.29887664318084717 0.011703841388225555 0.05073503777384758 0.11657438427209854 3.042293071746826 1.0409260988235474 0.22844548523426056 -0.12843425571918488 0.07299470156431198 -0.08128130435943604 10.355325698852539 0.7455559968948364 0.17584440112113953 0.06424128264188766 -0.014849542640149593 -0.06646236777305603 2.3548195362091064 -0.9040236473083496 -0.19342485070228577 -0.0346507728099823 0.1807669699192047 -0.13860280811786652 -40.994197845458984 25.891855239868164 -37.14876174926758 16.54499053955078 -9.067349433898926 -30.60793113708496 1.2093418836593628 28.98171615600586 -4.7440361976623535 0.002950097434222698 -0.02625124901533127 0.13912372291088104 0.06850814074277878 0.11478248238563538 0.006561466958373785 -0.05950446426868439 -0.15366403758525848 0.048001911491155624 -7.7505388259887695 5.525069713592529 -0.20411416888237 0.1845012903213501 -0.09138447791337967 -0.09193980693817139 -2.763822555541992 1.0278749465942383 0.05751475319266319 0.0638631209731102 -0.18859508633613586 -0.11515048891305923 -10.42988395690918 0.756960928440094 -0.09393700212240219 -0.0458645336329937 0.12209220230579376 0.018790701404213905 -2.4737396240234375 -0.6909221410751343 0.14538733661174774 0.05103307589888573 -0.11186850070953369 -0.12946923077106476 -11.238240242004395 15.599123001098633 1.4671978950500488 0.3764578402042389 29.111602783203125 2.763258218765259 -11.917276382446289 -18.784372329711914 -37.6568489074707 0.15452706813812256 -0.09438908100128174 -0.06162567809224129 85.46971893310547 -52.779537200927734 79.5645980834961 9.073824882507324 83.84564971923828 -8.629154205322266 0.8668513298034668 -3.840118169784546 0.33852943778038025
-17.427502991631627 50.43377876281738 4.4135925360023975 -13.71890640258789 -26.8718204498291 11.459397315979004 11.1477632522583 5.639091491699219 2.9220588207244873 3.0991857051849365 -6.428206920623779 0.8832404613494873 -4.048184871673584 11.373708724975586 -1.3975707292556763 5.271738529205322 -19.08078384399414 -1.7667227983474731 0.15602552890777588 0.22954781353473663 0.07027241587638855 0.026195386424660683 -0.04820646718144417 -0.01672070473432541 -0.00979012344032526 -0.10980063676834106 -0.01746346801519394 104.00371551513672 50.02226257324219 -53.64605712890625 -27.28079605102539 -43.19495391845703 90.26092529296875 -3.949540853500366 -48.76871871948242 -8.829386711120605 -0.024383941665291786 0.0510883592069149 -0.10868295282125473 0.021813692525029182 -0.052518051117658615 0.0165092833340168 -0.046723149716854095 0.2610890567302704 -0.15449552237987518 7.766654014587402 5.609084606170654 0.30171769857406616 0.015201040543615818 0.043996285647153854 0.14824818074703217 3.0435829162597656 1.0513676404953003 0.24297863245010376 -0.13517500460147858 0.0731804370880127 -0.07923788577318192 10.356998443603516 0.7420585751533508 0.16810128092765808 0.043634675443172455 -0.01387515664100647 -0.05016731470823288 2.3643667697906494 -0.9043475389480591 -0.19667011499404907 -0.043640729039907455 0.18113359808921814 -0.14184899628162384 -41.04146957397461 25.5899715423584 -37.19768142700195 16.472158432006836 -9.018477439880371 -30.514028549194336 1.2407740354537964 29.247596740722656 -4.773110866546631 0.021467553451657295 -0.02274114452302456 0.14516253769397736 0.08472537249326706 0.10288630425930023 0.004401440266519785 -0.05705048516392708 -0.1343332678079605 0.058112528175115585 -7.754030704498291 5.507016181945801 -0.19661526381969452 0.180215984582901 -0.10673797130584717 -0.08510980755090714 -2.760585069656372 1.0321358442306519 0.0661461278796196 0.05779121443629265 -0.19580593705177307 -0.10757415741682053 -10.45083236694336 0.7620417475700378 -0.09069810807704926 -0.03947899490594864 0.10222620517015457 -0.004592556040734053 -2.4888806343078613 -0.6813296675682068 0.1349964737892151 0.05188224837183952 -0.10602111369371414 -0.12958332896232605 -11.328414916992188 15.67892074584961 1.4469263553619385 0.3838023841381073 29.028182983398438 2.7817633152008057 -11.95789623260498 -18.761165618896484 -37.798954010009766 0.16288107633590698 -0.08424742519855499 -0.08105860650539398 85.78958129882812 -52.714534759521484 79.8297348022461 9.700738906860352 84.11546325683594 -9.281092643737793 0.9751179814338684 -3.9081201553344727 0.8345608711242676
-17.7498935488984 50.383228063583374 4.358918871730566 -13.79011344909668 -26.912973403930664 11.296606063842773 11.10452651977539 5.825355529785156 3.0355498790740967 3.036280632019043 -6.461645603179932 0.9314700961112976 -3.7460896968841553 11.200946807861328 -0.7168254852294922 4.989795684814453 -19.071420669555664 -0.43802475929260254 0.15332359075546265 0.22994884848594666 0.07348194718360901 0.015754560008645058 -0.048813287168741226 -0.030113035812973976 -0.017372071743011475 -0.10285373032093048 -0.010567610152065754 104.10174560546875 49.9213752746582 -53.709068298339844 -27.291343688964844 -43.18533706665039 90.25496673583984 -3.8656811714172363 -48.5816535949707 -8.742622375488281 -0.0034404979087412357 0.0465298593044281 -0.09211479127407074 0.03792107105255127 -0.044808268547058105 0.020921185612678528 -0.05056168884038925 0.2689586579799652 -0.18421514332294464 7.765457630157471 5.61044979095459 0.31561118364334106 0.026562675833702087 0.029078051447868347 0.1707712560892105 3.0384554862976074 1.058157205581665 0.26356419920921326 -0.14535923302173615 0.06464412063360214 -0.09028669446706772 10.354811668395996 0.7336133718490601 0.17091135680675507 0.008619457483291626 -0.013899551704525948 -0.02354813925921917 2.374763250350952 -0.9183469414710999 -0.19834664463996887 -0.0551111176609993 0.16553865373134613 -0.15004849433898926 -40.884193420410156 25.67765235900879 -37.25802230834961 16.55706024169922 -9.118886947631836 -30.756757736206055 1.2167564630508423 28.956924438476562 -4.683717250823975 0.03769421949982643 -0.014991065487265587 0.14123095571994781 0.1026809811592102 0.08033989369869232 -0.012408491224050522 -0.07313099503517151 -0.11788345873355865 0.05542168393731117 -7.757733345031738 5.500986576080322 -0.20303337275981903 0.18388491868972778 -0.12663571536540985 -0.0651560127735138 -2.764899969100952 1.0244611501693726 0.07299940288066864 0.0636482834815979 -0.19736836850643158 -0.10411830991506577 -10.465250968933105 0.7723818421363831 -0.08091581612825394 -0.027270883321762085 0.07855865359306335 -0.02333073690533638 -2.5030031204223633 -0.6713064908981323 0.1306682825088501 0.05287754908204079 -0.10235992074012756 -0.13467203080654144 -11.46576976776123 15.462307929992676 1.4066189527511597 0.3867032825946808 29.219606399536133 2.7730607986450195 -11.935880661010742 -18.8077392578125 -37.69358444213867 0.15888896584510803 -0.07388264685869217 -0.09136121720075607 85.5209732055664 -52.70259475708008 79.47244262695312 9.706642150878906 84.07982635498047 -9.316791534423828 1.0805041790008545 -3.8933370113372803 1.351424217224121
-18.07075347751379 50.32902956008911 4.313351307064295 -13.836694717407227 -26.967144012451172 11.164103507995605 11.074786186218262 6.011532306671143 3.1735470294952393 2.9602813720703125 -6.496458530426025 0.9736083149909973 -3.3958513736724854 11.023406028747559 0.07440631091594696 4.682067394256592 -19.07847023010254 1.0988597869873047 0.14471329748630524 0.22985447943210602 0.0783333033323288 0.003983141854405403 -0.058672983199357986 -0.043834540992975235 -0.01750948652625084 -0.09420622885227203 -0.003957269247621298 104.3282470703125 49.75556182861328 -53.96406936645508 -27.28482437133789 -43.216915130615234 90.31826782226562 -3.794451951980591 -48.422264099121094 -8.666071891784668 0.0086442232131958 0.043113090097904205 -0.07042879611253738 0.055701132863759995 -0.04023170843720436 0.024262990802526474 -0.060343511402606964 0.2732105255126953 -0.20948977768421173 7.760190486907959 5.611354351043701 0.33007848262786865 0.04001281037926674 0.012090964242815971 0.18070366978645325 3.0382697582244873 1.0635079145431519 0.2869834899902344 -0.1675947904586792 0.06319578737020493 -0.09974324703216553 10.355308532714844 0.7239201664924622 0.16886107623577118 -0.02553556300699711 -0.01364976353943348 0.004091657232493162 2.3830037117004395 -0.9261447787284851 -0.19612853229045868 -0.06737986207008362 0.15187184512615204 -0.15678639709949493 -40.638145446777344 25.82978630065918 -37.40211486816406 16.65902328491211 -9.233501434326172 -31.032785415649414 1.19037926197052 28.617450714111328 -4.594329357147217 0.06089174002408981 -0.012285085394978523 0.13732929527759552 0.12521992623806 0.05962889641523361 -0.03629346191883087 -0.09672045707702637 -0.09752856940031052 0.05901515111327171 -7.754604339599609 5.49521541595459 -0.2187460958957672 0.18905097246170044 -0.15395793318748474 -0.02851959690451622 -2.76436710357666 1.0137016773223877 0.08365057408809662 0.06575529277324677 -0.1925654411315918 -0.09905283898115158 -10.47057056427002 0.7822873592376709 -0.06814204156398773 -0.023791218176484108 0.05167512968182564 -0.038064371794462204 -2.5159037113189697 -0.6614384651184082 0.12552613019943237 0.05854193493723869 -0.09343072772026062 -0.1404564082622528 -11.617375373840332 15.280621528625488 1.3553733825683594 0.3878028094768524 29.466758728027344 2.763265371322632 -11.945051193237305 -18.924880981445312 -37.566673278808594 0.1558494120836258 -0.06460295617580414 -0.1037999764084816 85.21025848388672 -52.66048049926758 78.9957046508789 9.437478065490723 83.9329833984375 -9.070257186889648 1.1576849222183228 -3.8445701599121094 1.771153211593628
